HIERARCHY
ROOT Hips
{
	OFFSET 0.000000 1.471914 24.280096
	CHANNELS 6 Xposition Yposition Zposition Xrotation Yrotation Zrotation
	JOINT Spine
	{
		OFFSET 0.000000 0.900110 1.860670
		CHANNELS 6 Xposition Yposition Zposition Xrotation Yrotation Zrotation
		JOINT Spine1
		{
			OFFSET 0.000000 0.400320 2.270309
			CHANNELS 6 Xposition Yposition Zposition Xrotation Yrotation Zrotation
			JOINT Spine2
			{
				OFFSET 0.000000 0.200920 2.296560
				CHANNELS 6 Xposition Yposition Zposition Xrotation Yrotation Zrotation
				JOINT Spine3
				{
					OFFSET 0.000000 0.000000 2.305330
					CHANNELS 6 Xposition Yposition Zposition Xrotation Yrotation Zrotation
					JOINT Neck
					{
						OFFSET 0.000000 -0.864490 6.051487
						CHANNELS 6 Xposition Yposition Zposition Xrotation Yrotation Zrotation
						JOINT Head
						{
							OFFSET 0.000000 -0.550429 3.121674
							CHANNELS 6 Xposition Yposition Zposition Xrotation Yrotation Zrotation
							End Site
							{
								OFFSET 0.000000 0.000000 3.731750
							}
						}
					}
					JOINT RightShoulder
					{
						OFFSET -0.788280 -1.313800 4.256718
						CHANNELS 6 Xposition Yposition Zposition Xrotation Yrotation Zrotation
						JOINT RightArm
						{
							OFFSET -3.915130 0.000000 0.000000
							CHANNELS 6 Xposition Yposition Zposition Xrotation Yrotation Zrotation
							JOINT RightForeArm
							{
								OFFSET -6.914910 0.000000 0.000000
								CHANNELS 6 Xposition Yposition Zposition Xrotation Yrotation Zrotation
								JOINT RightHand
								{
									OFFSET -6.096219 0.000000 0.000000
									CHANNELS 6 Xposition Yposition Zposition Xrotation Yrotation Zrotation
									JOINT RightHandEnd
									{
										OFFSET -1.749950 0.000000 0.000000
										CHANNELS 6 Xposition Yposition Zposition Xrotation Yrotation Zrotation
										End Site
										{
											OFFSET -1.749950 0.000000 0.000000
										}
									}
									JOINT RightHandThumb1
									{
										OFFSET -0.699980 -1.166630 -0.466648
										CHANNELS 6 Xposition Yposition Zposition Xrotation Yrotation Zrotation
										End Site
										{
											OFFSET -1.690319 -0.452920 0.000000
										}
									}
								}
							}
						}
					}
					JOINT LeftShoulder
					{
						OFFSET 0.788280 -1.313800 4.256718
						CHANNELS 6 Xposition Yposition Zposition Xrotation Yrotation Zrotation
						JOINT LeftArm
						{
							OFFSET 3.915130 0.000000 0.000000
							CHANNELS 6 Xposition Yposition Zposition Xrotation Yrotation Zrotation
							JOINT LeftForeArm
							{
								OFFSET 6.914910 0.000000 0.000000
								CHANNELS 6 Xposition Yposition Zposition Xrotation Yrotation Zrotation
								JOINT LeftHand
								{
									OFFSET 6.096219 0.000000 0.000000
									CHANNELS 6 Xposition Yposition Zposition Xrotation Yrotation Zrotation
									JOINT LeftHandEnd
									{
										OFFSET 1.749950 0.000000 0.000000
										CHANNELS 6 Xposition Yposition Zposition Xrotation Yrotation Zrotation
										End Site
										{
											OFFSET 1.749950 0.000000 0.000000
										}
									}
									JOINT LeftHandThumb1
									{
										OFFSET 0.699980 -1.166630 -0.466648
										CHANNELS 6 Xposition Yposition Zposition Xrotation Yrotation Zrotation
										End Site
										{
											OFFSET 1.690319 -0.452920 0.000000
										}
									}
								}
							}
						}
					}
				}
			}
		}
	}
	JOINT RightUpLeg
	{
		OFFSET -2.338570 -0.252550 -0.551512
		CHANNELS 6 Xposition Yposition Zposition Xrotation Yrotation Zrotation
		JOINT RightLeg
		{
			OFFSET 0.000000 0.000000 -10.744959
			CHANNELS 6 Xposition Yposition Zposition Xrotation Yrotation Zrotation
			JOINT RightFoot
			{
				OFFSET 0.000000 -0.000001 -10.930849
				CHANNELS 6 Xposition Yposition Zposition Xrotation Yrotation Zrotation
				JOINT RightToeBase
				{
					OFFSET 0.000000 -4.087269 -1.487650
					CHANNELS 6 Xposition Yposition Zposition Xrotation Yrotation Zrotation
					End Site
					{
						OFFSET 0.000000 -1.891870 0.000000
					}
				}
			}
		}
	}
	JOINT LeftUpLeg
	{
		OFFSET 2.338570 -0.252550 -0.551512
		CHANNELS 6 Xposition Yposition Zposition Xrotation Yrotation Zrotation
		JOINT LeftLeg
		{
			OFFSET 0.000000 0.000000 -10.744959
			CHANNELS 6 Xposition Yposition Zposition Xrotation Yrotation Zrotation
			JOINT LeftFoot
			{
				OFFSET 0.000000 -0.000001 -10.930849
				CHANNELS 6 Xposition Yposition Zposition Xrotation Yrotation Zrotation
				JOINT LeftToeBase
				{
					OFFSET 0.000000 -4.087269 -1.487650
					CHANNELS 6 Xposition Yposition Zposition Xrotation Yrotation Zrotation
					End Site
					{
						OFFSET 0.000000 -1.891870 0.000000
					}
				}
			}
		}
	}
}
MOTION
Frames: 6
Frame Time: 0.041667
0.000034 26.984180 32.299400 -3.044868 -11.222075 71.208506 -0.000008 0.900090 1.860676 16.247179 -5.865401 1.003918 0.000013 0.400280 2.270321 0.000004 -0.000000 0.000014 0.000011 0.200884 2.296577 -0.000000 -0.000000 0.000002 0.000022 0.000026 2.305319 0.000027 -0.000003 4.415778 -0.000023 -0.864437 6.051424 -7.592484 2.400483 180.119151 0.000043 -0.550416 3.121673 -0.000007 -0.000001 -0.000003 -0.788277 -1.313727 4.256831 176.997017 61.095844 -23.246948 -3.915115 -0.000021 -0.000016 -0.000000 -0.000002 0.000010 -6.914846 0.000003 0.000018 0.000017 0.000011 -67.794334 -6.096193 0.000035 0.000035 -0.000003 -0.000006 -0.000029 -1.749894 -0.000036 0.000019 -0.000001 0.000005 -0.000001 -0.699964 -1.166608 -0.466646 -0.000028 -0.000008 -0.000025 0.788248 -1.313749 4.256769 -144.678460 -70.393719 52.803701 3.915241 0.000004 -0.000042 0.000005 0.000000 -0.000002 6.914947 -0.000065 -0.000003 0.000003 -0.000006 42.429777 6.096263 0.000171 -0.000048 0.000023 -0.000044 -0.000067 1.749986 0.000001 0.000066 -0.000015 -0.000009 -0.000004 0.699983 -1.166608 -0.466647 0.000020 -0.000004 -0.000033 -2.338583 -0.252544 -0.551486 -59.310364 -6.469228 -3.107245 0.000012 -0.000027 -10.744952 102.082505 -12.253792 -4.610792 -0.000034 0.000073 -10.930853 0.000034 -0.000002 0.000000 -0.000019 -4.087229 -1.487627 0.000001 -0.000000 -0.000000 2.338574 -0.252540 -0.551503 -52.702993 3.867417 -2.856669 -0.000020 -0.000006 -10.744926 94.146153 -1.397550 6.016132 0.000009 0.000010 -10.930866 -0.000012 0.000001 -0.000004 -0.000052 -4.087196 -1.487647 0.000003 0.000004 -0.000001 
0.000032 26.984182 32.299397 -3.043551 -11.166713 71.198780 -0.000010 0.900090 1.860674 16.156213 -5.869544 0.993542 0.000013 0.400283 2.270319 0.000003 -0.000002 0.000011 0.000009 0.200883 2.296577 -0.000000 0.000000 0.000004 0.000023 0.000026 2.305319 0.000027 -0.000003 4.398667 -0.000024 -0.864439 6.051421 -7.682009 2.513171 180.212520 0.000046 -0.550414 3.121658 -0.000009 -0.000001 -0.000004 -0.788279 -1.313728 4.256829 176.659387 60.957219 -22.800346 -3.915122 -0.000020 -0.000012 -0.000001 -0.000001 0.000008 -6.914845 0.000003 0.000022 0.000016 0.000009 -67.679498 -6.096193 0.000035 0.000035 -0.000006 -0.000003 -0.000031 -1.749895 -0.000027 0.000017 -0.000003 0.000000 -0.000000 -0.699964 -1.166604 -0.466638 -0.000028 -0.000012 -0.000030 0.788249 -1.313751 4.256772 -143.813390 -69.873511 53.599588 3.915236 0.000004 -0.000038 0.000000 0.000001 0.000002 6.914948 -0.000068 -0.000008 0.000003 -0.000005 42.405783 6.096264 0.000172 -0.000044 0.000028 -0.000045 -0.000073 1.749988 0.000002 0.000068 -0.000015 -0.000010 -0.000006 0.699986 -1.166605 -0.466643 0.000025 -0.000003 -0.000035 -2.338583 -0.252545 -0.551484 -59.297134 -6.457500 -3.091464 0.000013 -0.000027 -10.744952 101.949883 -12.311588 -4.610898 -0.000032 0.000071 -10.930849 0.000041 -0.000001 -0.000000 -0.000020 -4.087231 -1.487626 0.000005 0.000005 0.000000 2.338574 -0.252541 -0.551501 -52.591097 3.798042 -2.837918 -0.000019 -0.000007 -10.744927 94.136577 -1.483460 5.942174 0.000007 0.000010 -10.930864 -0.000012 0.000000 -0.000005 -0.000052 -4.087198 -1.487649 -0.000001 0.000002 -0.000004 
0.000030 26.984182 32.299400 -2.997090 -11.054799 71.126250 -0.000011 0.900090 1.860679 16.008854 -5.856010 0.974348 0.000014 0.400280 2.270319 0.000004 -0.000001 0.000011 0.000012 0.200882 2.296570 0.000001 -0.000000 0.000002 0.000018 0.000026 2.305327 0.000031 0.000001 4.433574 -0.000022 -0.864440 6.051421 -7.560326 2.609480 180.178642 0.000043 -0.550415 3.121673 -0.000008 -0.000001 -0.000006 -0.788274 -1.313729 4.256825 176.545172 60.863672 -22.714839 -3.915122 -0.000019 -0.000016 -0.000001 -0.000002 0.000006 -6.914854 0.000004 0.000019 0.000016 0.000015 -67.497227 -6.096194 0.000036 0.000032 -0.000010 -0.000004 -0.000032 -1.749895 -0.000030 0.000012 -0.000001 -0.000000 0.000000 -0.699964 -1.166608 -0.466646 -0.000028 -0.000011 -0.000030 0.788247 -1.313751 4.256770 -143.931729 -69.864844 53.469917 3.915236 0.000004 -0.000038 0.000002 0.000003 -0.000002 6.914944 -0.000065 0.000000 0.000005 -0.000003 42.514864 6.096267 0.000177 -0.000045 0.000030 -0.000047 -0.000073 1.749990 0.000001 0.000071 -0.000014 -0.000009 -0.000007 0.699988 -1.166606 -0.466637 0.000025 -0.000002 -0.000039 -2.338583 -0.252543 -0.551488 -59.356147 -6.331142 -3.060380 0.000011 -0.000026 -10.744951 102.154126 -12.284713 -4.503664 -0.000036 0.000070 -10.930850 0.000043 0.000002 0.000001 -0.000016 -4.087228 -1.487627 0.000002 -0.000000 0.000002 2.338572 -0.252542 -0.551501 -52.715646 3.735128 -2.812082 -0.000020 -0.000006 -10.744927 94.164096 -1.343345 5.849946 0.000007 0.000008 -10.930862 -0.000012 -0.000001 -0.000003 -0.000050 -4.087197 -1.487649 -0.000001 0.000002 -0.000003 
0.000028 26.984182 32.299400 -2.928784 -11.008535 71.173815 -0.000008 0.900089 1.860680 15.986742 -5.821259 0.974290 0.000012 0.400282 2.270319 0.000004 -0.000000 0.000012 0.000009 0.200884 2.296577 -0.000000 0.000001 0.000002 0.000023 0.000027 2.305323 0.000027 0.000001 4.532213 -0.000029 -0.864443 6.051416 -7.681977 2.654090 180.346514 0.000044 -0.550416 3.121670 -0.000008 -0.000002 -0.000003 -0.788284 -1.313731 4.256829 176.758370 60.723066 -22.821708 -3.915123 -0.000020 -0.000012 0.000000 -0.000001 0.000008 -6.914851 0.000004 0.000022 0.000016 0.000014 -67.521447 -6.096192 0.000030 0.000035 -0.000006 -0.000004 -0.000031 -1.749895 -0.000029 0.000015 -0.000002 0.000003 0.000001 -0.699965 -1.166598 -0.466647 -0.000028 -0.000008 -0.000027 0.788250 -1.313753 4.256766 -144.898092 -70.239972 52.477460 3.915238 0.000005 -0.000034 0.000003 0.000001 -0.000001 6.914946 -0.000065 0.000001 0.000004 -0.000005 42.649771 6.096263 0.000176 -0.000049 0.000026 -0.000047 -0.000068 1.749997 0.000002 0.000068 -0.000015 -0.000011 -0.000006 0.699994 -1.166605 -0.466640 0.000025 -0.000007 -0.000037 -2.338581 -0.252543 -0.551483 -59.468155 -6.470350 -3.068491 0.000019 -0.000027 -10.744951 102.269433 -12.375083 -4.644502 -0.000036 0.000072 -10.930845 0.000034 0.000002 0.000003 -0.000020 -4.087233 -1.487629 0.000002 0.000002 0.000000 2.338574 -0.252541 -0.551501 -52.639954 3.631543 -2.812563 -0.000016 -0.000005 -10.744926 93.906372 -1.452225 5.755243 0.000008 0.000010 -10.930864 -0.000014 -0.000000 -0.000000 -0.000051 -4.087196 -1.487648 -0.000002 0.000001 -0.000003 
0.000026 26.984182 32.299393 -2.883268 -11.079049 71.279479 -0.000011 0.900090 1.860677 15.918283 -5.762808 0.964434 0.000013 0.400283 2.270321 0.000003 -0.000002 0.000011 0.000016 0.200884 2.296570 0.000000 0.000001 0.000002 0.000022 0.000027 2.305319 0.000025 -0.000002 4.564058 -0.000026 -0.864440 6.051426 -7.617518 2.678067 180.188395 0.000042 -0.550415 3.121658 -0.000009 -0.000001 -0.000004 -0.788282 -1.313730 4.256833 176.824172 60.727082 -22.573603 -3.915113 -0.000021 -0.000012 -0.000002 0.000001 0.000007 -6.914852 0.000005 0.000015 0.000017 0.000014 -67.370404 -6.096193 0.000036 0.000034 -0.000006 -0.000003 -0.000031 -1.749894 -0.000032 0.000019 -0.000006 0.000005 -0.000001 -0.699965 -1.166607 -0.466639 -0.000030 -0.000010 -0.000028 0.788247 -1.313753 4.256773 -145.089187 -70.365456 52.312030 3.915239 0.000004 -0.000042 -0.000001 -0.000001 -0.000003 6.914941 -0.000069 -0.000003 0.000003 -0.000003 42.638887 6.096264 0.000174 -0.000037 0.000026 -0.000042 -0.000068 1.749988 0.000002 0.000072 -0.000015 -0.000007 0.000001 0.699988 -1.166609 -0.466640 0.000027 -0.000002 -0.000030 -2.338582 -0.252543 -0.551487 -59.357192 -6.400826 -3.046460 0.000014 -0.000024 -10.744951 102.271762 -12.392711 -4.580727 -0.000036 0.000071 -10.930849 0.000032 -0.000002 0.000000 -0.000021 -4.087232 -1.487629 0.000003 0.000002 0.000003 2.338574 -0.252541 -0.551501 -52.491848 3.521962 -2.789713 -0.000017 -0.000004 -10.744929 93.821534 -1.362398 5.640754 0.000010 0.000010 -10.930862 -0.000014 0.000003 -0.000005 -0.000052 -4.087198 -1.487646 -0.000002 0.000002 -0.000004 
0.000019 26.984180 32.299393 -2.936171 -11.086130 71.474351 -0.000009 0.900090 1.860673 15.984261 -5.842897 0.993748 0.000010 0.400281 2.270319 0.000004 -0.000002 0.000012 0.000009 0.200883 2.296572 -0.000000 0.000000 0.000003 0.000023 0.000028 2.305327 0.000026 -0.000003 4.541596 -0.000023 -0.864437 6.051420 -7.578999 2.617358 180.378548 0.000045 -0.550416 3.121662 -0.000009 -0.000001 -0.000006 -0.788280 -1.313727 4.256821 177.245499 60.538268 -22.806746 -3.915120 -0.000020 -0.000015 -0.000001 -0.000000 0.000007 -6.914852 0.000006 0.000018 0.000018 0.000012 -67.453937 -6.096194 0.000030 0.000034 -0.000004 -0.000004 -0.000032 -1.749893 -0.000028 0.000019 -0.000002 -0.000000 -0.000002 -0.699967 -1.166604 -0.466639 -0.000025 -0.000009 -0.000027 0.788247 -1.313750 4.256766 -146.352676 -70.849450 51.215825 3.915234 0.000002 -0.000046 0.000002 0.000000 -0.000003 6.914947 -0.000066 0.000001 0.000006 -0.000007 42.375132 6.096266 0.000174 -0.000044 0.000021 -0.000045 -0.000070 1.749990 0.000005 0.000070 -0.000013 -0.000010 -0.000005 0.699985 -1.166604 -0.466641 0.000022 -0.000001 -0.000034 -2.338581 -0.252544 -0.551484 -59.464037 -6.363630 -3.129217 0.000013 -0.000027 -10.744953 102.270902 -12.488166 -4.503875 -0.000036 0.000070 -10.930845 0.000039 0.000000 0.000002 -0.000021 -4.087229 -1.487629 0.000000 0.000001 0.000003 2.338573 -0.252544 -0.551503 -52.415404 3.337001 -2.859855 -0.000019 -0.000003 -10.744925 93.785710 -1.388913 5.516234 0.000009 0.000011 -10.930864 -0.000015 0.000000 -0.000004 -0.000047 -4.087198 -1.487649 -0.000002 0.000001 -0.000006 
